<?xml version="1.0" encoding="utf-8"?>
<!-- Generator: Adobe Illustrator 23.1.1, SVG Export Plug-In . SVG Version: 6.00 Build 0)  -->
<svg version="1.1" id="Livello_1" xmlns="http://www.w3.org/2000/svg" xmlns:xlink="http://www.w3.org/1999/xlink" x="0px" y="0px"
	 width="100px" height="100px" viewBox="0 0 100 100" style="enable-background:new 0 0 100 100;" xml:space="preserve">
<style type="text/css">
	.st0{fill-rule:evenodd;clip-rule:evenodd;fill:#FFFFFF;}
	.st1{fill:#ED8706;}
	.st2{fill-rule:evenodd;clip-rule:evenodd;fill:#1B181B;}
</style>
<g>
	<path class="st0" d="M5.8,27.5c-0.6-0.4-1-1-1.1-1.2C4.2,25.3,4,23.9,5.5,23c1.3-0.7,4.1-1.1,8.5-1.1c0.6,0,1.6,0.1,2.5,0.3
		c0.3,0,0.6,0.1,0.8,0.1c1.1-0.9,2.4-0.3,3.1,0.1c0.4,0.2,0.8,0.5,1.1,0.7c0.3,0.2,0.6,0.4,0.8,0.6c0.3,0.2,0.8,0.4,1.4,0.7
		c0.7,0.2,1.4,0.5,2.2,0.8c1.7,0.6,3.8,1.5,6,3.1c3.6,2.7,4.1,3.3,8.7,6.1c1.7,1,2.5,0.8,2.8,0.6c0.2-0.1,0.8-0.6,1.7-1.1
		c1-0.5,2.3-1.2,3.9-1.5c1.5-0.3,2.6-0.5,3.5-0.8c0.8-0.2,1.4-0.4,1.9-0.8c0.6-0.4,2.4-2.1,4.9-9.3C62,14.1,67.9,3,81.5,3
		c0.3,0,0.8,0,1.1,0.2c0.4,0.2,0.9,0.7,0.7,1.4c-0.1,0.4-0.3,0.7-0.6,0.9l0.1,0.2C82.9,6.1,83,6.2,83,6.2c0.3,0.5,0.6,1,0.8,1.6
		c0.3,0.6,0.6,1.4,0.8,2.3c0.5,1.9,0.7,4.4,0.4,8c-0.3,3.3-0.8,5.5-1.4,7.4C83.1,27.5,82.5,29,82,31c-0.8,3.4-0.8,5.1-0.9,6.3
		c0.1,1.7,0.4,3.1,0.7,3.9c0.2,0.6,0.5,1,0.6,1.2c2,2.1,3.7,4.1,5,6.1c1.2-0.4,2.5-0.7,3.9-1c1.2-0.3,1.6,0.2,1.8,0.9
		c0.2,0.7,0,1.4-1,1.7c-0.7,0.2-1.8,0.5-3.1,0.9l0.3,0.5c1.7,3.1,2.7,5.1,3.7,6.9c0.8,1.5,1.4,3,2.3,5c1.6,2.9-1.5,6.8-4.4,4.6
		c-0.3-0.2-1.8-1-3.3-0.8c-1.6,0.1-3.2,1.6-4.2,3.9c-0.5,1.3-1.5,1.7-2.5,1.7c-0.2,0-0.3,0-0.5-0.1c-0.1,0.2-0.2,0.4-0.3,0.6
		c-0.3,0.5-0.6,0.9-0.7,1.1c-0.5,0.7-2,1.9-3.5,1.2c-0.4-0.2-0.7-0.4-0.9-0.6c-0.5,1-1,2.4-1.5,3.9c-0.9,2.9-1.8,6-2.1,9.4
		c0,0.4,0,1,0,1.5c0.3,0.2,0.6,0.6,0.7,1.1c0.3,1.1-0.4,1.7-0.9,1.9c-0.1,0.6-0.3,1.1-1.2,1.6c-0.2,0.1-0.2,0.1-0.3,0.2
		c-0.2,1-0.6,1.7-1.9,2.3c-1.4,0.6-2.3-0.2-2.8-0.7c-0.6,0.2-1.4,0.1-1.8-0.3l-0.2,0c-0.5,0-1.4-0.3-1.9-0.5
		c-0.8-0.4-1.1-1.1-1.1-1.7c0-0.3,0.1-0.6,0.2-0.8l-0.1-0.3c-0.1-0.1-0.2-0.1-0.3-0.2c-0.2-0.1-0.4-0.4-0.5-0.4
		c-0.1-0.1-3.4-3-7.3-5.2c-2.2-1.3-4.6-2.2-6.6-2.9c-2-0.6-3.5-0.9-3.9-1c-0.9-0.2-1.1-0.2-1.9,0.8c-1.4,1.8-2.9,1.8-4,1.1
		c-0.2-0.1-0.4-0.2-0.5-0.4c-1.2,2.3-2.5,3.3-3.7,3.5c-1.1,0.2-1.9-0.3-2.3-0.8c-0.2-0.2-0.3-0.4-0.4-0.6c0-0.1-0.1-0.2-0.1-0.2
		c-0.5-1.1-1.3-3.3-1.7-4.9c-0.4-1.6-1-3.9-1.2-5.1c-0.3-1.3-0.5-2.6-0.6-4.1l-0.3,0c-1.3,0.2-2.3,0.4-2.9,0.6
		c-0.6,0.2-1.7,0.2-2.1-1c-0.2-0.8,0.2-1.3,0.5-1.5c0.3-0.2,0.5-0.3,0.7-0.3c1.6-0.6,2.8-0.9,4-1.2c0-1.1,0.1-2.2,0.2-3.5
		c0.2-1.9,0.2-3.6,0-5.2c-0.1-1.5-0.3-2.9-0.6-4.2c-0.1-0.7-1.5-2.1-1.6-2.2c-0.1-0.1-0.4-0.3-0.8-0.7c-0.4-0.3-1-0.8-1.7-1.4
		c-1.4-1.2-3.4-2.9-6-5.3c-2.8-2.6-4.8-6.1-5.9-8.8c-1-2.4-1.6-4.4-1.9-5.3C5.8,30.2,5.8,28.9,5.8,27.5L5.8,27.5z"/>
	<path class="st1" d="M65,21.8L64.7,24C64.7,23.2,64.9,22.5,65,21.8z M84.2,48.8l3.1,5.7c0.7,1.4,1.2,2.7,1.6,3.4
		c-0.2,0-0.5-0.1-0.6-0.2c-0.8-0.8-2.1-2.2-3.4-1.8c-0.8,0.3-1.4,1.2-2.1,1.4c-0.5,0.2-1.5-0.6-2.4-0.3c-0.6,0.2-1.3,1.6-2.1,1.9
		c-0.8,0.3-2.7,0.8-3.7,1.2c-1,0.4-1.6,0.8-2.2,1.2c-0.6,0.3-1.2,0.7-2,1.5c-3.2,3-4.2,6.5-3.9,10.8c0.4,6.3,2,13,3,17.5
		c-1.2,0.3-2.4,0.6-3.6,0.9c-1.6,0.5-2.9,0.9-3.6,1.1c-0.5-1.3-1.4-3.6-2.2-5.3c-1.1-2.5-2.2-5-2.9-5.9c-3.1-4.2-6.6-7.4-11.8-6.8
		c-3.2,0.3-4.7-2.6-7.8-2.3c-0.9,0.1-1,0.3-1.6,0.8c-0.3,0.3-0.7,0.4-1.1,0.4c-1.2,0.1-0.3-1.3-1.6-1.4c-1.8-0.2-4.4,3.7-5,4.7
		c-0.2-0.6-0.3-1.2-0.5-1.8c-0.3-1.1-0.5-2.2-0.5-2.9c-0.1-1.4,0.1-1.9-0.2-4.7c-0.2-1.4-0.1-2.8,0-4c0.1-1.2,0.3-2.1,0.5-2.9
		c0.3-1.4,1.3-4.2,1.7-5.1c0.2-0.4,0.3-0.8,0.4-1.1c0.1-0.3,0.1-0.6,0.1-0.8c-0.1-0.5,0-1,0.2-1.3c0.1-0.3,0.3-0.7,0.4-0.9
		c0.2-0.4,0.4-1,0.5-1.5c0.2-0.4,0.4-0.7,0.5-0.8c0.7-1.6,2.1-2.9,2.9-3.8c0.1,0.2,0.3,0.2,0.5,0.2c0.4-0.1,0.5-0.3,0.5-0.7
		c0-0.5-0.2-1.1-0.5-1.6c-2.1-3.5-4.3-6.2-4.3-6.2l0.1-0.6c0.2-0.1,0.4-0.2,0.5-0.4l0.3-0.1c0.1,0,0.2-0.1,0.2-0.1l0.2-0.1
		c0.1,0,0.3-0.1,0.4-0.2c0,0,0-0.1-0.2-0.4c-0.5-0.8-1.3-1.9-2.1-2.9c-0.7-1.2-1.6-2.2-2.3-2.9l0.4-0.7c1.6,0.5,3.2,1.4,5.6,3.1
		c2.2,1.5,4.3,2.8,5.8,3.4l0.5,0.2c0.7,0.5,1.3,0.9,2.3,0.9c1,0,1.8-0.3,2.6-0.6c0,0,0.7-0.7,1.4-1c0.7-0.2,1.8-0.4,2.9-0.5
		c1.9-0.1,3.9-0.9,6.1-2.2c2.1-1.2,4-4.6,5.7-8.8c2.5-6,3.8-6.9,4-7l0.7,0.6c-1,2.3-1.9,5.1-2,5.7c-0.2,1.1-0.3,1.5,0,2.1
		c0.2,0.5,0.7,0.8,1.2,0.6c1.1-0.4,1.4,0.4,1.2,1.2c-1.6,5.3,1.2,8.9,2,9.8c0.3,0.3,0.8,0.5,0.4-0.2c-0.5-1-0.9-1.8-1.1-2.5l1.4,2.1
		c0.7,1.2,2.9,1.8,4.8,2.3c0.6,0.4,1.1,0.7,1.5,1c0.3,0.2,0.7,0.5,1,0.8c0.2,0.1,0.3,0.3,0.4,0.4c0.1,0.1,0.1,0.2,0.2,0.3
		c0,0.1,0.1,0.2,0.1,0.4c0,0.2-0.1,0.3-0.2,0.4c0,0,0.1,0,0.1,0.1c1.5,0.8,3.1,2.3,4.8,4c0.8,0.8,1.6,1.7,2.4,2.7
		C83.9,48.3,84,48.6,84.2,48.8z"/>
	<path class="st2" d="M6.9,27.5c0,1.3,0.1,2.5,0.7,4.3c0.3,0.9,0.9,2.9,1.8,5.2c1.1,2.6,3,6,5.6,8.4c5.3,4.9,7.9,6.7,8.6,7.4
		c0.7,0.7,0.7,0,0.3-0.4c-0.5-0.5-3.6-3.3-6.9-6.6c-1.8-1.8-3.2-4-4-5.6c-1.3-2.7-3.1-6.3-3.4-12.4C9.5,27,6.9,26.2,6.9,27.5z"/>
	<path class="st2" d="M6.1,24c1.1-0.6,3.5-1,7.9-1c0.6,0,1.6,0.2,2.4,0.3c0.7,0.1,1.2,0.2,1.6-0.1c1-0.9,2.9,0.7,3.8,1.4
		c1.7,1.2,5.4,1.5,9.6,4.6c3.7,2.7,4.1,3.3,8.7,6.1c0.9,0.5,1.3,1.4-0.3,0.8c-1.5-0.6-3.9-1.9-6.4-3.6c-2.4-1.7-4-2.6-5.5-3
		c0,0,3.3,3.8,4.5,5.8c0.8,1.2-0.5,1.2-0.8,1.4c-0.3,0.1-0.7,0.3-0.7,0.3s2.3,2.7,4.4,6.2c0.6,1.1,1,2.8-0.4,3
		c-1.4,0.2-1.3-1.6-1.8-2.5c-0.8-1.5-2-2.7-3.4-4.2c-1.1-1.2-2.5-2.4-3.5-3.3c-1.6-1.2-0.5-2.4,0.5-2.1c1.8,0.6,2.7,0.7,3.3,0.7
		c0,0-1-1.9-1.8-2.6c-0.8-0.7-1.3-1.4-2.2-2.2c-0.8-0.6-1.8-1.6-2.3-2.2c-0.5-0.5-1.6-1.4-2.9-1.5c-1.6-0.1-1.5-0.3-3.4-0.5
		c-1.9-0.1-2.3,0-4.4,0c-2.1,0-2.6-0.1-3.1-0.2c-0.7,0-1.7,0.3-2.7,0.8c-0.7,0.3-1.2-0.3-1.4-0.7C5.3,25.1,5.3,24.4,6.1,24z"/>
	<path class="st2" d="M42.2,36.1c0.5,0.1,0.7,0.4,0.6,0.8c-0.1,0.3-0.5,0.4-0.8,0.3c-0.3-0.1-0.6-0.4-0.4-0.8
		C41.6,36.4,41.9,36,42.2,36.1z"/>
	<path class="st2" d="M79.3,39.3c0-0.3,0-0.5,0.3-0.5c0.3,0,0.5,0,0.7,0.4c0.1,0.4,0.3,0.9,0.3,1.1c0,0.3-0.1,0.5-0.4,0.6
		c-0.3,0-0.5-0.1-0.6-0.3C79.5,40.4,79.3,39.6,79.3,39.3z"/>
	<path class="st2" d="M72.1,37.8c-0.5-0.3-0.9-0.3-1.1-0.5c-0.2-0.3-0.1-0.6,0-0.7c0.2-0.2,0.4-0.4,0.6-0.6c0.2-0.1,0.5-0.3,1.2,0.1
		c3.5,2.2,6.4,4.6,8.8,7c3.1,3.1,5.3,6.3,6.7,8.9c1.7,3.1,2.7,5,3.6,6.9c0.8,1.5,1.4,3,2.3,5c0.5,1,0.2,1.4-0.2,1.5
		c-0.4,0.2-1-0.1-1.3-0.8c-0.3-0.7-1.9-4.8-2.5-6c-0.1-0.2-0.4-0.3-0.6-0.2c-0.4,0.1-0.1,0.5-0.5,0.6c-0.3,0.1-0.5-0.2-0.5-0.4
		c0-0.1-1-2.2-2.1-4.6c-0.9-2-2.1-4.2-3.2-5.6c-0.7-1-1.6-1.9-2.3-2.7c-1.6-1.7-3.2-3.1-4.6-3.9c-0.2-0.1-0.4-0.3-0.4-0.5
		c0-0.3,0.2-0.2,0.2-0.4c0.1-0.3-0.9-1-1.5-1.4C74.1,39.1,72.9,38.2,72.1,37.8z"/>
	<path class="st2" d="M69.6,88.4c0.1-0.7,0.1-4.6,1-8c0.3-1,0.7-2.5,1.1-3.8c0.6-1.9,1.4-3.9,3.1-5.7c0.8-0.8,1.8-0.2,1.9,0.2
		c0.1,0.4,0.2,0.6,0.2,1.1c0,0.7,0.3,0.6,0.4,0.4c0.4-0.7,1.1-2.1,2-3.2c0.4-0.4,0.6-0.5,1-0.3c0.2,0.1,0.4,0.4,0.7-0.1
		c0.2-0.5,2.5-3.9,5.6-4.3c3.1-0.4,5.1,0.5,5.8,0.9c0.8,0.4,1,1.3,0.4,1.6c-0.5,0.3-0.6,0.2-0.9-0.1c-0.3-0.2-2.1-1.4-4.4-1.2
		c-2.2,0.2-4.1,2.1-5.1,4.6c-0.3,0.8-0.9,1-1.4,1c-0.3,0-0.4,0-0.7-0.2c-0.2-0.1-0.4-0.1-0.5,0.1c-0.2,0.4-1.1,1.8-1.4,2.2
		c-0.4,0.6-1.3,1.2-2.1,0.8c-0.9-0.4-1-1-1-1.5c0.1-0.6-0.5-0.6-0.6-0.3c-0.1,0.3-1.4,2.6-2.4,5.8c-0.9,2.9-1.8,6.2-2.1,9.6
		c-0.1,0.6-0.1,0.7-0.3,0.7C69.6,88.9,69.5,88.7,69.6,88.4z"/>
	<path class="st2" d="M69.4,90.6c0.4-0.1,1.2-0.1,1.3,0.5c0.1,0.6-0.3,0.7-0.5,0.8c-0.3,0-0.3,0.3-0.3,0.6c0,0.3,0,0.6-0.6,0.8
		c-0.4,0.2-0.8,0.4-0.9,0.9c-0.2,0.8-0.4,1.1-1.3,1.5c-0.9,0.4-1.5-0.4-1.6-0.6c-0.1-0.2-0.2-0.5-0.5-0.5c-0.1,0-0.3,0.1-0.5,0.2
		c-0.3,0.2-0.8,0.1-1-0.1c-0.1-0.1-0.2-0.1-0.7-0.1c-0.3,0-1-0.2-1.4-0.4c-0.4-0.2-0.5-0.5-0.5-0.8c0-0.3,0.2-0.7,1.2-0.9
		c0.6-0.2,2-0.6,3.6-1.1C66.9,91.2,68.2,90.8,69.4,90.6z"/>
	<path class="st2" d="M37.3,81.8c0.6-0.6,1.1-2.1,3.6-1.9c1.1,0.1,3.1,0.6,5.2,1.3c2.3,0.8,5.3,2.1,7,3.3c4.1,3,6.8,5.5,7.4,6.3
		c0.3,0.3,0.4,0.5,0.1,0.7c-0.2,0.2-0.6-0.3-0.8-0.4c-0.1-0.1-3.6-3.1-7.5-5.4c-4.6-2.7-10-3.8-10.8-4c-1.3-0.3-1.9-0.1-3,1.2
		c-1.1,1.4-2,1.2-2.5,0.9c-0.6-0.4-0.7-0.9-0.8-1.4c-0.1-0.3-0.3-0.3-0.4-0.1c-0.1,0.1-0.9,1.6-1.2,2.3c-0.2,0.6-1,0.3-1.3,0.1
		c-0.3-0.2-1.1-0.6-0.5-1.1c0.5-0.4,0.8-0.9,1.4-2c0.6-1,1.5-2,2.6-2.3c1.2-0.3,1.2,0.7,1.2,0.9c0,0.2,0,1.3,0,1.6
		C37.1,81.8,37.3,81.9,37.3,81.8z"/>
	<path class="st2" d="M27.3,56.3c0.2,0.1,0.3-0.1,0.5-1.1c0.2-0.9,0.5-2.4,1.1-3.7c0.8-1.6,0.8-2.2,0.7-3c0-0.4-0.2-0.6,0-0.8
		c0.1-0.2,0.3-0.1,0.5-0.1c0.2,0,0.6,0.1,0.8,0.2c0.4,0.1,0.6,0.6,0.4,1.5c-0.2,0.9-0.5,1.9-0.8,2.5c-0.2,0.5-0.7,1.2-0.5,2
		c0.1,0.6-0.2,1.4-0.5,2.2c-0.3,0.8-1.3,3.6-1.6,5c-0.3,1.4-0.9,3.9-0.5,6.7c0.3,2.8,0.1,3.3,0.2,4.8c0.1,1.5,0.8,4.1,1.3,6.1
		c0.5,2,1.1,4.3,1.9,6.4c0.5,1.2-0.1,1.4-0.3,1.6c-0.3,0.1-0.8,0.2-1.3-0.8c-0.4-1.1-1.3-3.1-1.6-4.7c-0.4-1.6-1-3.8-1.2-5.1
		c-0.6-2.8-0.9-6-0.5-10.6c0.2-2,0.2-3.8,0-5.4c-0.1-1.6-0.3-3-0.7-4.3c-0.2-0.8-0.2-0.9,0.2-1.4c0.3-0.5,0.7-0.4,1,0.2
		c0.2,0.5,0.4,0.9,0.6,1.5C27.2,56,27.2,56.3,27.3,56.3z"/>
	<path class="st2" d="M21.1,71c3.5-1.2,5.1-1.5,8.6-1.7c3.6-0.2,8.8,1.2,11.4,1.9c0.5,0.2,0.4,0.4,0.4,0.5c0,0.1-0.2,0.2-0.5,0.1
		c-0.2,0-3.1-0.8-6.3-1.1c-1.7-0.2-3.5-0.2-4.9-0.1c-2.2,0.1-4,0.3-5.4,0.4c-1.4,0.2-2.4,0.5-3.1,0.7c-0.3,0.1-0.6,0-0.6-0.2
		C20.6,71.2,20.9,71.1,21.1,71z"/>
	<path class="st2" d="M32.5,67.2c1.1,0,2.3-0.1,4-0.6c1-0.3,1.8-0.8,2.1-1.8c0.1-0.3,0.3-0.4,0.5-0.4c0.2,0,0.2,0.1,0.1,0.6
		c-0.1,0.4,0.5,2,2.7,2.9c1.6,0.7,2.9,1.3,7.4,0.8c1.9-0.2,3.3,0.6,3.3,0.6s0.6-0.5-2-4.1c-0.3-0.5,0.1-0.7,0.5-0.3
		c0.4,0.4,0.6,0.6,1.2,1.2c0.5,0.5,1.5,1.9,2.2,3.8c0.7,2,1,4,2,6.6c0.9,2.2,1.7,5.2,1.7,5.4c0.1,0.5-0.3,0.5-0.4,0.1
		c-0.1-0.2-0.6-1.4-1.1-2.8c-0.4-0.9-0.8-1.9-1.1-2.7c-0.7-1.9-1.4-4-1.8-4.5c-0.2-0.4-0.4-0.5-0.6-0.5c-0.4,0-0.8,0.4-1.1,0.5
		c-0.3,0.1-0.6,0.3-0.9-0.1c-0.2-0.2,0-0.5,0.1-0.7c0.1-0.2,0.5-0.5,0.4-0.8c-0.1-0.4-0.6-0.6-0.9-0.6c-0.3-0.1-0.8-0.4-3.7,0.2
		c-3,0.6-4.7,0.7-5.5,0.6c-1.1-0.2-1.6-0.2-2.6-0.6c-0.9-0.3-1.5-0.6-2.1-0.9c-1-0.5-2.1-1.2-4.5-1.3C32,67.8,32.1,67.2,32.5,67.2z"
		/>
	<path class="st2" d="M65,62c0,0-1-1.2-1.3-2.7c-0.3-1.5-0.3-3.9,2.2-4.8c2.5-0.9,5.1,0.6,5.3,2.8c3.3-2,7-4,10.7-5.5
		c3.9-1.6,6.3-2.5,9.7-3.3c0.3-0.1,0.5-0.1,0.5,0.1c0.1,0.2-0.1,0.2-0.3,0.3c-1.7,0.5-6,1.7-10.7,4c-5.2,2.5-9.1,4.8-12.5,7.8
		c-3,2.6-3.2,3.3-3.5,3.7c-0.2,0.3-0.2,0.7,0,0.8c0.2,0.2,0.5,0.5,0.3,1c-0.2,0.4-0.5,0.4-0.8,0.3c-0.1,0-0.3,0.1-0.3,0.4
		c-0.1,0.3-0.1,2.3,0.2,4c0.3,1.6,0.6,3.1,1,4.4c0.1,0.4-0.3,0.7-0.6,0.1c-0.4-0.8-0.8-2.2-1.5-5.5c-0.4-1.6-0.7-2.4-0.8-2.9
		c-0.2-0.8-0.5-1.5-0.6-2.1c0-1.4-0.2-1.6-0.6-3.3c-0.2-0.9-0.6-2.3-0.5-3.9c0.1-1.1,0.3-2.3,1.1-3.3c1.8-2.4,4.5-3.4,6-3.7
		c1.5-0.3,4.7,0.2,6.9-0.2c2.2-0.4,3.6-2,4.2-2.8c0.2-0.3,0.6,0,0.4,0.3c-0.1,0.1-0.7,1.4-1.6,2.7c-0.7,0.9-1.5,1.9-2.4,2.3
		c-2.5,1.3-4.9,0.7-6.5,0.4c-1.3-0.2-4.6-0.4-6,1.8c-1.4,2.3-0.8,4.5-0.6,5.5c0.2,1,0.5,1.9,0.9,2.9L65,62z"/>
	<path class="st0" d="M66.9,58.6c-0.3,0.2-0.6,0.4-1.1,0.6c0,0-0.7-1.9-0.4-3.3c0.1-0.5,0.9-0.9,1,0C66.4,56.7,66.6,57.8,66.9,58.6z
		"/>
	<path class="st2" d="M79.6,7.7c-0.3-0.5-0.5-1.2,0.3-1.3c0.8,0,1.1,0,1.4,0c0.3,0,0.5,0,0.7,0.4c1,1.9,2.5,4.2,1.9,11.4
		c-0.5,6.3-2,8.5-3,12.6c-0.8,3.6-0.8,5.3-0.9,6.5c-0.1,0.7-0.1,0.9-0.4,0.9c-0.3,0-0.5-0.2-0.5-1.1c0-0.9,0.2-4.4,1.1-8.1
		c0.4-1.4,0.9-3.6,1.3-5.7c0.3-1.9,0.4-3.7,0.4-5.1C82,13.7,80.7,9.6,79.6,7.7z"/>
	<path class="st2" d="M44,35.9c0.3-0.2,2.4-1.8,5.3-2.5c3-0.7,4.4-0.8,5.7-1.7c0.9-0.7,2.8-2.6,5.3-9.8C63,14.5,68.7,4.1,81.5,4.1
		c1.1,0,0.9,0.6-0.1,0.9c-0.9,0.2-9.4,1.5-12.3,6.2c1.3,0.1,0.8,1.1,0.5,1.6c-0.4,0.6-3.9,5.4-4.5,11.3c0,0,0.8-0.7,1.4-0.7
		c0.6,0,1.4,0.3,1.3,1.2c-0.1,1-0.8,3.7-0.7,5.5c0.1,1.8,0.3,3.2,1.7,6c0.5,0.9-0.4,1.7-1.2,0.7c-0.8-1-3.7-4.7-2-10.3
		c0.2-0.6,0-0.8-0.5-0.6c-0.7,0.3-1.5-0.1-1.8-0.8c-0.3-0.7-0.3-1.2,0-2.4c0.1-0.6,1-3.4,2-5.8c0,0-1.3,0.8-3.8,6.8
		c-1.7,4.1-3.7,7.7-5.9,9c-2.2,1.3-4.2,2.1-6.3,2.2c-2.3,0.1-3.8,0.8-4.9,1.2C44,36.4,43.7,36.1,44,35.9z"/>
</g>
</svg>
